<?xml version="1.0" encoding="UTF-8" standalone="no"?>
<svg width="34px" height="6px" viewBox="0 0 34 6" version="1.1" xmlns="http://www.w3.org/2000/svg" xmlns:xlink="http://www.w3.org/1999/xlink" xmlns:sketch="http://www.bohemiancoding.com/sketch/ns">
    <!-- Generator: Sketch 3.3.1 (12002) - http://www.bohemiancoding.com/sketch -->
    <title>statusBarSignal</title>
    <desc>Created with Sketch.</desc>
    <defs></defs>
    <g id="Elements" stroke="none" stroke-width="1" fill="none" fill-rule="evenodd" sketch:type="MSPage">
        <g id="UI-Kit" sketch:type="MSArtboardGroup" transform="translate(-66.000000, -202.000000)" fill="#030303">
            <g id="Status-Bar-Black" sketch:type="MSLayerGroup" transform="translate(60.000000, 195.000000)">
                <path d="M9.25,13 C10.7687831,13 12,11.7687831 12,10.25 C12,8.73121694 10.7687831,7.5 9.25,7.5 C7.73121694,7.5 6.5,8.73121694 6.5,10.25 C6.5,11.7687831 7.73121694,13 9.25,13 Z M16.25,13 C17.7687831,13 19,11.7687831 19,10.25 C19,8.73121694 17.7687831,7.5 16.25,7.5 C14.7312169,7.5 13.5,8.73121694 13.5,10.25 C13.5,11.7687831 14.7312169,13 16.25,13 Z M23.25,13 C24.7687831,13 26,11.7687831 26,10.25 C26,8.73121694 24.7687831,7.5 23.25,7.5 C21.7312169,7.5 20.5,8.73121694 20.5,10.25 C20.5,11.7687831 21.7312169,13 23.25,13 Z M30.25,13 C31.7687831,13 33,11.7687831 33,10.25 C33,8.73121694 31.7687831,7.5 30.25,7.5 C28.7312169,7.5 27.5,8.73121694 27.5,10.25 C27.5,11.7687831 28.7312169,13 30.25,13 Z M30.25,12.5 C31.4926407,12.5 32.5,11.4926407 32.5,10.25 C32.5,9.00735931 31.4926407,8 30.25,8 C29.0073593,8 28,9.00735931 28,10.25 C28,11.4926407 29.0073593,12.5 30.25,12.5 Z M37.25,13 C38.7687831,13 40,11.7687831 40,10.25 C40,8.73121694 38.7687831,7.5 37.25,7.5 C35.7312169,7.5 34.5,8.73121694 34.5,10.25 C34.5,11.7687831 35.7312169,13 37.25,13 Z M37.25,12.5 C38.4926407,12.5 39.5,11.4926407 39.5,10.25 C39.5,9.00735931 38.4926407,8 37.25,8 C36.0073593,8 35,9.00735931 35,10.25 C35,11.4926407 36.0073593,12.5 37.25,12.5 Z" id="Mobile-Signal" sketch:type="MSShapeGroup"></path>
            </g>
        </g>
    </g>
</svg>